<svg width="205" height="50" viewBox="0 0 205 50" fill="none" xmlns="http://www.w3.org/2000/svg">
<rect width="50" height="50" rx="5" fill="#443DFC"/>
<path d="M36.5 35.5C37.0523 35.5 37.5 35.0523 37.5 34.5C37.5 33.9477 37.0523 33.5 36.5 33.5C35.9477 33.5 35.5 33.9477 35.5 34.5C35.5 35.0523 35.9477 35.5 36.5 35.5Z" fill="white"/>
<path d="M18 35H11C10.7239 35 10.5 35.2239 10.5 35.5V37C10.5 37.2761 10.7239 37.5 11 37.5H18C18.2761 37.5 18.5 37.2761 18.5 37V35.5C18.5 35.2239 18.2761 35 18 35Z" fill="white"/>
<path d="M17.7984 22.6001L13.6484 34.0001H16.8484L20.5984 23.7001L17.7984 22.6001Z" fill="white"/>
<path d="M27.2984 10.5C25.8169 10.5082 24.3729 10.9669 23.1583 11.8154C21.9436 12.6638 21.016 13.8617 20.4984 15.25L18.1484 21.65L20.9484 22.75L23.3484 16.25C23.6849 15.3187 24.3397 14.5362 25.197 14.0408C26.0544 13.5453 27.0593 13.3687 28.0342 13.5422C29.0091 13.7156 29.8914 14.228 30.5253 14.9887C31.1591 15.7495 31.5038 16.7098 31.4984 17.7V19H34.4984V17.7C34.4853 15.7945 33.7226 13.9707 32.3751 12.6233C31.0277 11.2759 29.204 10.5131 27.2984 10.5Z" fill="white"/>
<path d="M26.5 31.35C27.163 31.35 27.7989 31.0866 28.2678 30.6177C28.7366 30.1489 29 29.513 29 28.85V20.2C27.5805 20.5366 26.3155 21.341 25.4086 22.4837C24.5016 23.6265 24.0055 25.0411 24 26.5V31.35H26.5Z" fill="white"/>
<path d="M37 31.55V22.5C37 21.837 36.7366 21.2011 36.2678 20.7322C35.7989 20.2634 35.163 20 34.5 20H30V28.85C30 29.7783 29.6313 30.6685 28.9749 31.3249C28.3185 31.9813 27.4283 32.35 26.5 32.35H24V35C24 35.663 24.2634 36.2989 24.7322 36.7678C25.2011 37.2366 25.837 37.5 26.5 37.5H36.5C37.2445 37.4892 37.9584 37.2018 38.5029 36.6938C39.0473 36.1858 39.3834 35.4935 39.4458 34.7515C39.5081 34.0095 39.2923 33.2708 38.8403 32.6791C38.3882 32.0874 37.7323 31.685 37 31.55ZM36.5 36.5C36.1044 36.5 35.7178 36.3827 35.3889 36.1629C35.06 35.9432 34.8036 35.6308 34.6522 35.2654C34.5009 34.8999 34.4613 34.4978 34.5384 34.1098C34.6156 33.7219 34.8061 33.3655 35.0858 33.0858C35.3655 32.8061 35.7219 32.6156 36.1098 32.5384C36.4978 32.4613 36.8999 32.5009 37.2654 32.6522C37.6308 32.8036 37.9432 33.06 38.1629 33.3889C38.3827 33.7178 38.5 34.1044 38.5 34.5C38.5 35.0304 38.2893 35.5391 37.9142 35.9142C37.5391 36.2893 37.0304 36.5 36.5 36.5Z" fill="white"/>
<path d="M71.116 35.336C64.9 35.336 61.008 31.22 61.008 24.668C61.008 18.2 65.124 13.944 71.312 13.944C76.492 13.944 80.216 16.912 80.86 21.56H76.072C75.456 19.488 73.692 18.312 71.2 18.312C67.84 18.312 65.796 20.692 65.796 24.64C65.796 28.532 67.868 30.968 71.2 30.968C73.748 30.968 75.624 29.708 76.184 27.664H80.888C80.16 32.284 76.296 35.336 71.116 35.336ZM87.0049 35H82.6929V13.888H87.0049V35ZM96.1758 35.364C91.9478 35.364 88.9238 32.284 88.9238 27.972C88.9238 23.604 91.8638 20.552 96.0918 20.552C100.488 20.552 103.232 23.436 103.232 28V29.092L93.0678 29.148C93.3198 30.996 94.3558 31.864 96.2598 31.864C97.8838 31.864 99.0318 31.276 99.3398 30.268H103.288C102.784 33.376 100.012 35.364 96.1758 35.364ZM96.1198 24.052C94.4118 24.052 93.4598 24.808 93.1238 26.488H98.9478C98.9478 25.004 97.8558 24.052 96.1198 24.052ZM109.317 35.364C106.349 35.364 104.501 33.628 104.501 30.884C104.501 28.308 106.321 26.712 109.681 26.46L113.601 26.152V25.928C113.601 24.556 112.761 23.828 111.221 23.828C109.401 23.828 108.421 24.528 108.421 25.788H104.837C104.837 22.624 107.441 20.552 111.445 20.552C115.505 20.552 117.801 22.82 117.801 26.824V35H113.993L113.713 33.152C113.265 34.44 111.417 35.364 109.317 35.364ZM110.829 32.172C112.481 32.172 113.629 31.36 113.629 29.764V29.008L111.445 29.204C109.569 29.372 108.897 29.792 108.897 30.688C108.897 31.696 109.513 32.172 110.829 32.172ZM124.645 35H120.333V21H124.393L124.673 22.456C125.541 21.252 127.137 20.552 128.957 20.552C132.289 20.552 134.221 22.68 134.221 26.348V35H129.909V27.384C129.909 25.62 128.929 24.472 127.445 24.472C125.737 24.472 124.645 25.592 124.645 27.328V35ZM138.882 18.816C137.51 18.816 136.418 17.724 136.418 16.352C136.418 14.98 137.51 13.916 138.882 13.916C140.226 13.916 141.318 14.98 141.318 16.352C141.318 17.724 140.226 18.816 138.882 18.816ZM136.754 35V21H141.066V35H136.754ZM148.053 35H143.741V21H147.801L148.081 22.456C148.949 21.252 150.545 20.552 152.365 20.552C155.697 20.552 157.629 22.68 157.629 26.348V35H153.317V27.384C153.317 25.62 152.337 24.472 150.853 24.472C149.145 24.472 148.053 25.592 148.053 27.328V35ZM159.461 27.748C159.461 23.492 162.233 20.524 166.181 20.524C168.085 20.524 169.597 21.252 170.353 22.4L170.577 21H174.637V34.104C174.637 39.116 171.753 42.14 166.965 42.14C162.681 42.14 159.797 39.704 159.405 35.728H163.773C163.857 37.296 165.033 38.22 166.937 38.22C169.009 38.22 170.325 36.988 170.325 35V33.18C169.485 34.188 167.917 34.832 166.097 34.832C162.177 34.832 159.461 31.948 159.461 27.748ZM163.801 27.636C163.801 29.652 165.145 31.08 167.049 31.08C169.009 31.08 170.325 29.708 170.325 27.636C170.325 25.592 169.009 24.276 167.021 24.276C165.117 24.276 163.801 25.648 163.801 27.636ZM183.816 35.364C179.588 35.364 176.564 32.284 176.564 27.972C176.564 23.604 179.504 20.552 183.732 20.552C188.128 20.552 190.872 23.436 190.872 28V29.092L180.708 29.148C180.96 30.996 181.996 31.864 183.9 31.864C185.524 31.864 186.672 31.276 186.98 30.268H190.928C190.424 33.376 187.652 35.364 183.816 35.364ZM183.76 24.052C182.052 24.052 181.1 24.808 180.764 26.488H186.588C186.588 25.004 185.496 24.052 183.76 24.052ZM202.497 21V25.06H201.125C198.661 25.06 197.177 26.152 197.177 28.924V35H192.865V21.028H196.925L197.149 23.1C197.737 21.728 198.969 20.804 200.845 20.804C201.349 20.804 201.909 20.86 202.497 21Z" fill="white"/>
</svg>
